<svg width="700" height="200" viewBox="0 0 700 200" fill="none" xmlns="http://www.w3.org/2000/svg">
<rect width="700" height="200" fill="white"/>
<path d="M106.557 117.651L98.2046 96.9131V117.651H89.6719V81.648H100.4L109.149 103.394L117.898 81.648H126.25L111.778 117.651H106.557Z" fill="#190926"/>
<path d="M129 104H120V118H129V104Z" fill="#8200FA"/>
<path d="M161.37 81.648H151.757L137.824 117.651H147.509L156.582 91.8367L161.119 104.798L165.618 117.651H175.267L161.37 81.648Z" fill="#190926"/>
<path d="M156.57 117.651L150.852 108.799H162.239L156.57 117.651Z" fill="#8200FA"/>
<path d="M198.887 96.6785H216.924V109.208C216.529 109.928 216.025 110.612 215.52 111.26C211.344 116.553 204.504 119.217 197.843 118.136C191.399 117.057 185.818 112.556 183.478 106.471C181.102 100.315 182.218 93.1501 186.394 88.0019C190.463 82.9614 196.979 80.4052 203.388 81.2691C209.148 82.0612 214.152 85.5534 217.069 90.558L209.364 94.3384C207.456 91.278 203.927 89.4777 200.327 89.6579C197.195 89.8018 194.243 91.4941 192.515 94.0865C190.499 97.0744 190.247 101.035 191.903 104.239C193.378 107.12 196.223 109.171 199.427 109.64C202.739 110.144 206.16 108.884 208.392 106.363V104.167H198.887V96.6785Z" fill="#190926"/>
<path d="M226.219 117.651H251.708V110.054H226.219V117.651ZM226.219 103.61H251.708V96.013H226.219V103.61ZM226.219 81.648V89.2447H251.708V81.648H226.219Z" fill="#190926"/>
<path d="M316.887 108.794C313.718 114.447 307.634 118.3 300.65 118.3C290.353 118.3 282 109.946 282 99.6497C282 89.3525 290.353 81 300.65 81C307.634 81 313.682 84.8163 316.887 90.4688L309.146 94.2491C307.382 91.441 304.214 89.5686 300.65 89.5686C295.105 89.5686 290.604 94.069 290.604 99.6134C290.604 105.158 295.105 109.659 300.65 109.659C304.214 109.659 307.382 107.786 309.146 104.978L316.887 108.794Z" fill="#190926"/>
<path d="M358.989 99.6497C358.989 109.946 350.673 118.3 340.376 118.3C330.079 118.3 321.727 109.946 321.727 99.6497C321.727 89.3525 330.079 81 340.376 81C350.673 81 358.989 89.3166 358.989 99.6497ZM350.421 99.6134C350.421 94.069 345.921 89.5686 340.376 89.5686C334.832 89.5686 330.331 94.069 330.331 99.6134C330.331 105.158 334.832 109.659 340.376 109.659C345.921 109.659 350.421 105.158 350.421 99.6134Z" fill="#190926"/>
<path d="M381.971 117.651L373.619 96.9131V117.651H365.086V81.648H375.814L384.563 103.394L393.312 81.648H401.665L387.192 117.651H381.971Z" fill="#190926"/>
<path d="M404.149 103.286H395.544V117.651H404.149V103.286Z" fill="#8200FA"/>
<path d="M442.184 93.2408C442.184 99.5414 437.864 104.87 430.088 104.87H421.771V117.651H413.238V81.648H430.088C437.9 81.648 442.184 86.9405 442.184 93.2408ZM433.508 93.2408C433.508 90.8286 431.78 89.2447 429.079 89.2447H421.771V97.2372H429.079C431.708 97.2372 433.472 95.653 433.508 93.2408Z" fill="#190926"/>
<path d="M468.483 81.648H458.87L444.938 117.651H454.622L463.695 91.8367L468.232 104.798L472.731 117.651H482.38L468.483 81.648Z" fill="#190926"/>
<path d="M463.684 117.651L457.965 108.799H469.353L463.684 117.651Z" fill="#8200FA"/>
<path d="M523.767 81.648V117.651H515.306L500.041 96.8051V117.651H491.508V81.648H499.392L515.234 103.106V81.648H523.767Z" fill="#190926"/>
<path d="M532.91 81.648H541.443V117.651H532.91V81.648Z" fill="#190926"/>
<path d="M587.845 99.6497C587.845 109.946 579.528 118.3 569.232 118.3C558.935 118.3 550.582 109.946 550.582 99.6497C550.582 89.3525 558.935 81 569.232 81C579.528 81 587.845 89.3166 587.845 99.6497ZM579.276 99.6134C579.276 94.069 574.776 89.5686 569.232 89.5686C563.687 89.5686 559.187 94.069 559.187 99.6134C559.187 105.158 563.687 109.659 569.232 109.659C574.776 109.659 579.276 105.158 579.276 99.6134Z" fill="#190926"/>
<path d="M629.2 81.648V117.651H620.739L605.474 96.8051V117.651H596.941V81.648H604.826L620.667 103.106V81.648H629.2Z" fill="#190926"/>
<path d="M71.2676 118.733L80.2676 118.733L80.2676 92.7325L71.2676 92.7325L71.2676 118.733Z" fill="#190926"/>
<path d="M75.7182 90.8525L70 82L81.3875 82L75.7182 90.8525Z" fill="#8200FA"/>
</svg>
