<svg width="560" height="38" viewBox="0 0 560 38" fill="none" xmlns="http://www.w3.org/2000/svg">
<path d="M36.5571 36.6509L28.2046 15.9131V36.6509H19.6719V0.64801H30.4004L39.1492 22.3936L47.8979 0.64801H56.2505L41.7778 36.6509H36.5571Z" fill="#190926"/>
<path d="M59 23H50V37H59V23Z" fill="#8200FA"/>
<path d="M91.3701 0.64801H81.7571L67.8242 36.6513H77.509L86.5815 10.8367L91.1188 23.798L95.6182 36.6513H105.267L91.3701 0.64801Z" fill="#190926"/>
<path d="M86.57 36.6513L80.8518 27.7988H92.2393L86.57 36.6513Z" fill="#8200FA"/>
<path d="M128.887 15.6785H146.924V28.2077C146.529 28.9277 146.025 29.6118 145.52 30.26C141.344 35.5528 134.504 38.2166 127.843 37.1363C121.399 36.0567 115.818 31.556 113.478 25.4714C111.102 19.315 112.218 12.1501 116.394 7.0019C120.463 1.96138 126.979 -0.594781 133.388 0.269114C139.148 1.06123 144.152 4.55341 147.069 9.55805L139.364 13.3384C137.456 10.278 133.927 8.47773 130.327 8.65791C127.195 8.80183 124.243 10.4941 122.515 13.0865C120.499 16.0744 120.247 20.035 121.903 23.2393C123.378 26.1196 126.223 28.1715 129.427 28.6398C132.739 29.1438 136.16 27.8836 138.392 25.3634V23.1672H128.887V15.6785Z" fill="#190926"/>
<path d="M156.219 36.6509H181.708V29.0543H156.219V36.6509ZM156.219 22.6097H181.708V15.013H156.219V22.6097ZM156.219 0.64801V8.2447H181.708V0.64801H156.219Z" fill="#190926"/>
<path d="M246.887 27.7943C243.718 33.4471 237.634 37.2997 230.65 37.2997C220.353 37.2997 212 28.9464 212 18.6497C212 8.35254 220.353 0 230.65 0C237.634 0 243.682 3.81628 246.887 9.46875L239.146 13.2491C237.382 10.441 234.214 8.5686 230.65 8.5686C225.105 8.5686 220.604 13.069 220.604 18.6134C220.604 24.1582 225.105 28.6586 230.65 28.6586C234.214 28.6586 237.382 26.7861 239.146 23.978L246.887 27.7943Z" fill="#190926"/>
<path d="M288.989 18.6497C288.989 28.9464 280.673 37.2997 270.376 37.2997C260.079 37.2997 251.727 28.9464 251.727 18.6497C251.727 8.35254 260.079 0 270.376 0C280.673 -7.49999e-06 288.989 8.31665 288.989 18.6497ZM280.421 18.6134C280.421 13.069 275.921 8.5686 270.376 8.5686C264.832 8.5686 260.331 13.069 260.331 18.6134C260.331 24.1582 264.832 28.6586 270.376 28.6586C275.921 28.6586 280.421 24.1582 280.421 18.6134Z" fill="#190926"/>
<path d="M311.971 36.6509L303.619 15.9131V36.6509H295.086V0.64801H305.814L314.563 22.3936L323.312 0.64801H331.665L317.192 36.6509H311.971Z" fill="#190926"/>
<path d="M334.149 22.2856H325.544V36.6509H334.149V22.2856Z" fill="#8200FA"/>
<path d="M372.184 12.2408C372.184 18.5414 367.864 23.8698 360.088 23.8698H351.771V36.6509H343.238V0.64801H360.088C367.9 0.64801 372.184 5.94049 372.184 12.2408ZM363.508 12.2408C363.508 9.82855 361.78 8.24469 359.079 8.24469H351.771V16.2372H359.079C361.708 16.2372 363.472 14.653 363.508 12.2408Z" fill="#190926"/>
<path d="M398.483 0.64801H388.87L374.938 36.6513H384.622L393.695 10.8367L398.232 23.798L402.731 36.6513H412.38L398.483 0.64801Z" fill="#190926"/>
<path d="M393.684 36.6513L387.965 27.7988H399.353L393.684 36.6513Z" fill="#8200FA"/>
<path d="M453.767 0.64801V36.6509H445.306L430.041 15.8051V36.6509H421.508V0.64801H429.392L445.234 22.1058V0.64801H453.767Z" fill="#190926"/>
<path d="M462.91 0.64801H471.443V36.6509H462.91V0.64801Z" fill="#190926"/>
<path d="M517.845 18.6497C517.845 28.9464 509.528 37.2997 499.232 37.2997C488.935 37.2997 480.582 28.9464 480.582 18.6497C480.582 8.35254 488.935 0 499.232 0C509.528 -7.49999e-06 517.845 8.31665 517.845 18.6497ZM509.276 18.6134C509.276 13.069 504.776 8.5686 499.232 8.5686C493.687 8.5686 489.187 13.069 489.187 18.6134C489.187 24.1582 493.687 28.6586 499.232 28.6586C504.776 28.6586 509.276 24.1582 509.276 18.6134Z" fill="#190926"/>
<path d="M559.2 0.64801V36.6509H550.739L535.474 15.8051V36.6509H526.941V0.64801H534.826L550.667 22.1058V0.64801H559.2Z" fill="#190926"/>
<path d="M1.26758 37.7325L10.2676 37.7325L10.2676 11.7325L1.26758 11.7325L1.26758 37.7325Z" fill="#190926"/>
<path d="M5.71819 9.85246L0 1L11.3875 1L5.71819 9.85246Z" fill="#8200FA"/>
</svg>
