<svg width="60" height="60" viewBox="0 0 60 60" fill="none" xmlns="http://www.w3.org/2000/svg">
<rect width="60" height="60" rx="8" fill="white"/>
<path d="M7.26758 48L16.2676 48L16.2676 22L7.26758 22L7.26758 48Z" fill="#190926"/>
<path d="M54.1543 38.7943C50.9858 44.4471 44.9016 48.2997 37.9172 48.2997C27.6201 48.2997 19.2676 39.9464 19.2676 29.6497C19.2676 19.3525 27.6201 11 37.9172 11C44.9016 11 50.95 14.8163 54.1543 20.4688L46.4141 24.2491C44.6497 21.441 41.4812 19.5686 37.9172 19.5686C32.3728 19.5686 27.8721 24.069 27.8721 29.6134C27.8721 35.1582 32.3728 39.6586 37.9172 39.6586C41.4812 39.6586 44.6497 37.7861 46.4141 34.978L54.1543 38.7943Z" fill="#190926"/>
<path d="M11.7182 20.1199L6 11.2675L17.3875 11.2675L11.7182 20.1199Z" fill="#8200FA"/>
</svg>
